HIERARCHY
ROOT Hips
{
	OFFSET 0.000000 0.000000 0.000000
	CHANNELS 6 Xposition Yposition Zposition Zrotation Yrotation Xrotation 
	JOINT LHipJoint
	{
		OFFSET 0.000000 0.000000 0.000000
		CHANNELS 3 Zrotation Yrotation Xrotation
		JOINT LeftUpLeg
		{
			OFFSET 1.363060 -1.794630 0.839290
			CHANNELS 3 Zrotation Yrotation Xrotation
			JOINT LeftLeg
			{
				OFFSET 2.448110 -6.726130 0.000000
				CHANNELS 3 Zrotation Yrotation Xrotation
				JOINT LeftFoot
				{
					OFFSET 2.562200 -7.039590 0.000000
					CHANNELS 3 Zrotation Yrotation Xrotation
					JOINT LeftToeBase
					{
						OFFSET 0.157640 -0.433110 2.322550
						CHANNELS 3 Zrotation Yrotation Xrotation
						End Site
						{
							OFFSET 0.000000 0.000000 0.000000
						}
					}
				}
			}
		}
	}
	JOINT RHipJoint
	{
		OFFSET 0.000000 0.000000 0.000000
		CHANNELS 3 Zrotation Yrotation Xrotation
		JOINT RightUpLeg
		{
			OFFSET -1.305520 -1.794630 0.839290
			CHANNELS 3 Zrotation Yrotation Xrotation
			JOINT RightLeg
			{
				OFFSET -2.542530 -6.985550 0.000000
				CHANNELS 3 Zrotation Yrotation Xrotation
				JOINT RightFoot
				{
					OFFSET -2.568260 -7.056230 0.000000
					CHANNELS 3 Zrotation Yrotation Xrotation
					JOINT RightToeBase
					{
						OFFSET -0.164730 -0.452590 2.363150
						CHANNELS 3 Zrotation Yrotation Xrotation
						End Site
						{
							OFFSET 0.000000 0.000000 0.000000
						}
					}
				}
			}
		}
	}
	JOINT LowerBack
	{
		OFFSET 0.000000 0.000000 0.000000
		CHANNELS 3 Zrotation Yrotation Xrotation
		JOINT Spine
		{
			OFFSET 0.028270 2.035590 -0.193380
			CHANNELS 3 Zrotation Yrotation Xrotation
			JOINT Spine1
			{
				OFFSET 0.056720 2.048850 -0.042750
				CHANNELS 3 Zrotation Yrotation Xrotation
				JOINT Neck
				{
					OFFSET 0.000000 0.000000 0.000000
					CHANNELS 3 Zrotation Yrotation Xrotation
					JOINT Neck1
					{
						OFFSET -0.054170 1.746240 0.172020
						CHANNELS 3 Zrotation Yrotation Xrotation
						JOINT Head
						{
							OFFSET 0.104070 1.761360 -0.123970
							CHANNELS 3 Zrotation Yrotation Xrotation
							End Site
							{
								OFFSET 0.000000 0.000000 0.000000
							}
						}
					}
				}
				JOINT LeftShoulder
				{
					OFFSET 0.000000 0.000000 0.000000
					CHANNELS 3 Zrotation Yrotation Xrotation
					JOINT LeftArm
					{
						OFFSET 3.362410 1.200890 -0.311210
						CHANNELS 3 Zrotation Yrotation Xrotation
						JOINT LeftForeArm
						{
							OFFSET 4.983000 -0.000000 -0.000000
							CHANNELS 3 Zrotation Yrotation Xrotation
							JOINT LeftHand
							{
								OFFSET 3.483560 -0.000000 -0.000000
								CHANNELS 3 Zrotation Yrotation Xrotation
								JOINT LeftFingerBase
								{
									OFFSET 0.000000 0.000000 0.000000
									CHANNELS 3 Zrotation Yrotation Xrotation
									JOINT LeftHandIndex1
									{
										OFFSET 0.715260 -0.000000 -0.000000
										CHANNELS 3 Zrotation Yrotation Xrotation
										End Site
										{
											OFFSET 0.000000 0.000000 0.000000
										}
									}
								}
								JOINT LThumb
								{
									OFFSET 0.000000 0.000000 0.000000
									CHANNELS 3 Zrotation Yrotation Xrotation
									End Site
									{
										OFFSET 0.000000 0.000000 0.000000
									}
								}
							}
						}
					}
				}
				JOINT RightShoulder
				{
					OFFSET 0.000000 0.000000 0.000000
					CHANNELS 3 Zrotation Yrotation Xrotation
					JOINT RightArm
					{
						OFFSET -3.136600 1.374050 -0.404650
						CHANNELS 3 Zrotation Yrotation Xrotation
						JOINT RightForeArm
						{
							OFFSET -5.241900 -0.000000 -0.000000
							CHANNELS 3 Zrotation Yrotation Xrotation
							JOINT RightHand
							{
								OFFSET -3.444170 -0.000000 -0.000000
								CHANNELS 3 Zrotation Yrotation Xrotation
								JOINT RightFingerBase
								{
									OFFSET 0.000000 0.000000 0.000000
									CHANNELS 3 Zrotation Yrotation Xrotation
									JOINT RightHandIndex1
									{
										OFFSET -0.622530 -0.000000 -0.000000
										CHANNELS 3 Zrotation Yrotation Xrotation
										End Site
										{
											OFFSET 0.000000 0.000000 0.000000
										}
									}
								}
								JOINT RThumb
								{
									OFFSET 0.000000 0.000000 0.000000
									CHANNELS 3 Zrotation Yrotation Xrotation
									End Site
									{
										OFFSET 0.000000 0.000000 0.000000
									}
								}
							}
						}
					}
				}
			}
		}
	}
}
MOTION
Frames: 7
Frame Time: 0.008333
6.363230 16.870499 -4.801202 -178.115996 38.677049 -164.786403 -11.578460 2.728294 1.642774 -14.400655 -11.691374 6.198596 -1.725815 1.411365 21.900507 -0.567509 -8.389837 0.872040 -0.803900 -0.000001 -35.336800 6.174929 -0.572226 4.849010 2.449879 19.137395 -35.176859 3.100426 -0.122651 10.316467 1.619114 10.229972 6.976062 2.091100 -0.000000 -47.796200 6.573300 -2.668706 -4.436911 0.530902 -3.477410 -3.829035 -7.598465 -3.589857 -0.267051 8.344471 -6.606187 -5.379157 -4.478752 -0.363155 0.609796 0.000000 0.000000 0.000000 -9.643839 -0.056719 1.310327 -74.294157 -22.560860 31.848300 -2.610655 -35.572160 -0.011426 3.562538 0.033458 -0.004827 -0.098049 0.220670 0.000000 0.000000 0.000000 0.000000 0.000000 0.000000 0.000000 18.159283 -5.736976 1.715984 66.344421 -10.915882 -12.617122 4.346383 11.708860 0.008051 -1.890525 3.958386 -0.070498 0.132459 -0.045378 0.000000 0.000000 0.000000 0.000000 0.000000 0.000000 0.000000 
6.448764 16.895610 -4.914132 -177.912454 38.048983 -164.694503 -11.807984 2.872533 1.487629 -13.663558 -10.187325 5.156481 -1.526827 1.566117 23.634511 -0.542304 -8.762544 2.716874 -1.108500 0.000000 -39.455700 6.181535 -0.684474 4.833017 2.888393 18.823902 -34.643505 3.108662 -0.151206 10.442214 1.588040 9.973156 7.137145 2.047700 0.000000 -45.243600 6.872661 -2.611002 -4.407350 0.583688 -3.443377 -3.833994 -7.547163 -3.556203 -0.250894 8.286492 -6.421512 -5.394090 -4.486633 -0.363627 0.604549 0.000000 0.000000 0.000000 -9.699535 0.095196 1.318258 -74.700897 -21.655632 30.735984 -2.571506 -33.486681 -0.013626 4.243101 0.208034 0.001053 -0.094503 0.207936 0.000000 0.000000 0.000000 0.000000 0.000000 0.000000 0.000000 18.110321 -5.590833 1.655385 66.195353 -10.276970 -12.475370 4.337604 11.661763 0.007978 -2.017251 3.958087 -0.074996 0.132930 -0.045688 0.000000 0.000000 0.000000 0.000000 0.000000 0.000000 0.000000 
6.535025 16.921738 -5.024656 -177.726302 37.383244 -164.613840 -12.036914 3.014797 1.319897 -12.863050 -8.509760 3.962410 -1.323988 1.708374 25.486949 -0.502715 -9.246753 4.623115 -1.475401 -0.000000 -42.468000 6.199022 -0.788417 4.831091 3.308395 18.487767 -34.063490 3.130096 -0.158081 10.462639 1.564990 9.788028 7.127897 1.996900 0.000000 -42.493900 7.130105 -2.562362 -4.383323 0.628137 -3.414632 -3.837918 -7.499239 -3.527597 -0.225197 8.247435 -6.252944 -5.413085 -4.496822 -0.364268 0.598439 0.000000 0.000000 0.000000 -9.698545 0.239984 1.332467 -75.054400 -20.761808 29.534540 -2.526267 -31.401970 -0.015627 4.943227 0.435084 0.011532 -0.090208 0.194969 0.000000 0.000000 0.000000 0.000000 0.000000 0.000000 0.000000 18.089012 -5.462043 1.593294 66.072443 -9.605027 -12.295372 4.326824 11.643297 0.007906 -2.106051 3.953324 -0.077991 0.133027 -0.045858 0.000000 0.000000 0.000000 0.000000 0.000000 0.000000 0.000000 
6.621720 16.948563 -5.132997 -177.550881 36.673802 -164.531119 -12.263336 3.149067 1.146950 -12.012381 -6.716731 2.626589 -1.118071 1.836389 27.450232 -0.442948 -9.776861 6.580776 -1.903000 0.000000 -44.447300 6.223329 -0.884493 4.844883 3.708484 18.140453 -33.454493 3.163526 -0.143890 10.383751 1.547807 9.651320 6.969694 1.936900 0.000000 -39.642900 7.356280 -2.521142 -4.373641 0.666529 -3.391216 -3.841838 -7.455283 -3.504036 -0.188466 8.224246 -6.107100 -5.439770 -4.508968 -0.365031 0.590548 0.000000 0.000000 0.000000 -9.656941 0.386071 1.354050 -75.338662 -19.896554 28.286738 -2.478883 -29.340335 -0.017310 5.635255 0.707243 0.027016 -0.085224 0.182105 0.000000 0.000000 0.000000 0.000000 0.000000 0.000000 0.000000 18.091598 -5.353812 1.530613 65.973290 -8.901461 -12.067780 4.313956 11.660931 0.007838 -2.163787 3.947362 -0.079886 0.132789 -0.045924 0.000000 0.000000 0.000000 0.000000 0.000000 0.000000 0.000000 
6.708521 16.975793 -5.239201 -177.389289 35.919864 -164.443585 -12.481695 3.268826 0.975481 -11.143222 -4.877946 1.170876 -0.912214 1.949321 29.511894 -0.359317 -10.262011 8.556934 -2.371800 0.000000 -45.371200 6.253158 -0.972654 4.872278 4.085765 17.782218 -32.830251 3.205828 -0.110855 10.215592 1.534095 9.541344 6.700844 1.868400 -0.000000 -36.905499 7.554406 -2.485537 -4.382016 0.699599 -3.372006 -3.846697 -7.415172 -3.484483 -0.143173 8.213339 -5.983212 -5.473266 -4.522956 -0.365926 0.581149 0.000000 0.000000 0.000000 -9.584207 0.526390 1.383806 -75.542632 -19.060351 27.017992 -2.432442 -27.326014 -0.018592 6.288184 1.015144 0.047703 -0.079554 0.169680 0.000000 0.000000 0.000000 0.000000 0.000000 0.000000 0.000000 18.113575 -5.262849 1.469601 65.898722 -8.173743 -11.799257 4.298630 11.719759 0.007775 -2.196237 3.943616 -0.080880 0.132238 -0.045971 0.000000 0.000000 0.000000 0.000000 0.000000 0.000000 0.000000 
6.794719 17.003140 -5.343788 -177.226710 35.120968 -164.334888 -12.692753 3.367664 0.810674 -10.266663 -3.047377 -0.398722 -0.707860 2.047546 31.667241 -0.250576 -10.610452 10.517058 -2.848200 -0.000000 -45.400799 6.281358 -1.054956 4.914647 4.450482 17.425576 -32.205913 3.256168 -0.059637 9.962368 1.520223 9.423416 6.354457 1.787300 0.000000 -34.303300 7.743999 -2.451177 -4.416502 0.731288 -3.355002 -3.855308 -7.377743 -3.467047 -0.095240 8.205090 -5.873990 -5.508277 -4.538113 -0.366967 0.571824 0.000000 0.000000 0.000000 -9.492291 0.638739 1.422236 -75.658679 -18.229623 25.726597 -2.387937 -25.394981 -0.019429 6.869586 1.353692 0.073100 -0.073117 0.158000 0.000000 0.000000 0.000000 0.000000 0.000000 0.000000 0.000000 18.138801 -5.179826 1.413871 65.852144 -7.433264 -11.525386 4.281630 11.813867 0.007731 -2.205250 3.948916 -0.081273 0.131423 -0.046172 0.000000 0.000000 0.000000 0.000000 0.000000 0.000000 0.000000 
6.879712 17.030326 -5.446713 -177.069763 34.284392 -164.212090 -12.889937 3.440186 0.655527 -9.424770 -1.291000 -2.048832 -0.509409 2.133088 33.892726 -0.118510 -10.714358 12.412820 -3.277300 -0.000000 -44.658900 6.308131 -1.131002 4.964594 4.801453 17.061391 -31.583063 3.310619 0.006177 9.634838 1.503902 9.280116 5.980530 1.696600 0.000000 -32.108700 7.923006 -2.416948 -4.469841 0.761193 -3.338522 -3.865311 -7.343026 -3.449898 -0.042182 8.197605 -5.782810 -5.549962 -4.553546 -0.368016 0.560951 0.000000 0.000000 0.000000 -9.394965 0.750041 1.468496 -75.683080 -17.441233 24.483332 -2.350817 -23.543683 -0.019823 7.356216 1.708416 0.101807 -0.066354 0.147300 0.000000 0.000000 0.000000 0.000000 0.000000 0.000000 0.000000 18.164873 -5.104139 1.363069 65.828625 -6.676859 -11.216201 4.261821 11.953279 0.007688 -2.206543 3.958781 -0.081464 0.130428 -0.046506 0.000000 0.000000 0.000000 0.000000 0.000000 0.000000 0.000000 
